<?xml version="1.0" encoding="utf-8"?>
<!-- Generator: Adobe Illustrator 18.0.0, SVG Export Plug-In . SVG Version: 6.00 Build 0)  -->
<!DOCTYPE svg PUBLIC "-//W3C//DTD SVG 1.1//EN" "http://www.w3.org/Graphics/SVG/1.1/DTD/svg11.dtd">
<svg version="1.1" id="Layer_1" xmlns="http://www.w3.org/2000/svg" xmlns:xlink="http://www.w3.org/1999/xlink" x="0px" y="0px"
	 viewBox="0 0 248.1 99.9" enable-background="new 0 0 248.1 99.9" xml:space="preserve">
<g>
	<path d="M202.4,46c-10-0.1-8.9,8.8-8.9,8.9h18.3C211.8,54.8,212.8,46,202.4,46z"/>
	<path d="M0,0v99.9h248.1V0H0z M73.7,76.7H52.2V64.2c0,0-5.2,1.8-9.2,3.1c-2.7,0.7-4.7,2.3-4.9,5c-0.2,2.3,2.4,4.4,2.4,4.4h-21
		c0,0-4.7-1.7-4.5-6.7c0.4-9.6,7.9-13.1,26.3-15.2c9.9-1.2,11-2.2,11-4.7c0-2-1.2-4.3-6.8-4.4c-8.1,0-7.5,5.5-7.5,5.5H17.3
		c-0.1,0,0.2-18.9,29.2-18.9c12.2,0,27.2,3.3,27.2,15.5V76.7z M119.4,46.8h-6.1c-2.9,0-5.5,1.1-7,2.6c-1.3,1.3-2.4,2.9-2.4,6.6v20.7
		H82V33.5h20v6.2c0,0,2.5-5.9,9.7-6.9c4.6-0.7,7.7,0.8,7.7,0.8V46.8z M168.2,46.8h-13v29.9h-9.4c-3.8,0-7,0.1-9.4-2.4
		c-2.8-3-2.7-6.1-2.7-9.9V46.8h-9V33.5h9V23.2h21.6v10.2h13V46.8z M232.8,65.8h-38.7v10.9h-15.8c0,0-6.5-5.9-6.4-17.5
		c0.2-27.1,29.3-26.6,30.5-26.6C238.7,33,232.8,65.7,232.8,65.8z"/>
</g>
</svg>
