<?xml version="1.0" encoding="utf-8"?>
<!-- Generator: Adobe Illustrator 18.0.0, SVG Export Plug-In . SVG Version: 6.00 Build 0)  -->
<!DOCTYPE svg PUBLIC "-//W3C//DTD SVG 1.1//EN" "http://www.w3.org/Graphics/SVG/1.1/DTD/svg11.dtd">
<svg version="1.1" id="Layer_1" xmlns="http://www.w3.org/2000/svg" xmlns:xlink="http://www.w3.org/1999/xlink" x="0px" y="0px"
	 viewBox="0 0 64.7 15.7" enable-background="new 0 0 64.7 15.7" xml:space="preserve">
<g>
	<path d="M16.6,11.4h-1.4V10h-1.6v0.2c0,1,0.7,1.7,1.7,1.7h1.2c1,0,1.7-0.7,1.7-1.7V10h-1.6V11.4z M16.5,6.8h-1.2
		c-1,0-1.7,0.7-1.7,1.7v0.2h1.6V7.4h1.4v1.4h1.6V8.5C18.3,7.5,17.6,6.8,16.5,6.8"/>
	<path d="M6.3,10.9H5.1c-0.4,0-0.6-0.2-0.6-0.6V8.5c0-0.4,0.2-0.6,0.6-0.6h1.2c0.4,0,0.6,0.2,0.6,0.6v1.7
		C6.9,10.6,6.7,10.9,6.3,10.9 M6.3,6.8H5.1c-1,0-1.7,0.7-1.7,1.7v5.4l1.1,0v-2.1c0,0,0,0,0,0C4.7,12,4.9,12,5.1,12h1.2
		c1,0,1.7-0.7,1.7-1.7V8.5C8,7.5,7.3,6.8,6.3,6.8"/>
	<path d="M22.9,6.8h-1.2c-0.2,0-0.3,0-0.6,0.1l-0.1,0V5h-1.1l0,7H21V8.5c0-0.4,0.2-0.6,0.6-0.6h1.2c0.4,0,0.6,0.2,0.6,0.6V12h1.1
		V8.5C24.6,7.5,23.9,6.8,22.9,6.8"/>
	<path d="M53.6,12h1.1V6.8h-1.1L53.6,12z M54.7,5h-1.1l0,1.2h1.1V5z"/>
	<path d="M51.8,7.9l0-1.1l-1.5,0V5h-1.1l0,1.9l-1,0v1.1h1l0,2.3c0,1,0.7,1.7,1.7,1.7h0.9v-1.1h-0.9c-0.4,0-0.6-0.2-0.6-0.6V7.9H51.8
		z"/>
	<path d="M34.3,10.9c-0.4,0-0.6-0.2-0.6-0.6V5h-1.1l0,5.3c0,1,0.7,1.7,1.7,1.7h0.9v-1.1L34.3,10.9z"/>
	<path d="M11.2,6.8c-1,0-1.7,0.7-1.7,1.7V12h1.1V8.5c0-0.4,0.2-0.6,0.6-0.6h1.4V6.8H11.2z"/>
	<path d="M39.9,6.8l-0.5,1.8l-0.5,1.9c-0.1,0.3-0.1,0.3-0.3,0.3c-0.2,0-0.2,0-0.3-0.3l-1.1-3.8H36l1.1,4.1c0.2,0.8,0.6,1.2,1.4,1.2
		c0.8,0,1.2-0.3,1.4-1.2l1.1-4H39.9z"/>
	<path d="M28,7.9h1.2c0.4,0,0.7,0.2,0.7,0.7v0.3h-2.6V8.5C27.3,8.1,27.5,7.9,28,7.9 M29.2,6.8H28c-1,0-1.7,0.7-1.7,1.7v1.7
		c0,1,0.7,1.7,1.7,1.7h2.7v-1.1l-2.8,0c-0.4,0-0.6-0.2-0.6-0.6V10h2.8c0.4,0,0.8-0.3,0.8-0.8V8.5C30.9,7.5,30.2,6.8,29.2,6.8"/>
	<path d="M43.3,8.7c0-0.5,0.3-0.8,0.7-0.8h1.2c0.4,0,0.7,0.2,0.7,0.7v0.3h-2.6V8.7z M45.2,6.8H44c-1,0-1.7,0.7-1.7,1.7v1.7
		c0,1,0.7,1.7,1.7,1.7h2.7v-1.1l-2.7,0c-0.4,0-0.6-0.2-0.6-0.6V10h2.8c0.4,0,0.8-0.3,0.8-0.8V8.5C46.9,7.5,46.2,6.8,45.2,6.8"/>
	<path d="M59.5,10.9H58c-0.6,0-0.7-0.3-0.7-0.5c0-0.4,0.1-0.5,0.6-0.5l1.8-0.2c0,0,0.2,0,0.2-0.1l0,0.9
		C59.9,10.8,59.8,10.9,59.5,10.9 M59.2,6.8H57v1.1h2.3c0.3,0,0.5,0.2,0.6,0.5v0.1c0,0.1-0.1,0.1-0.3,0.2l-1.7,0.2
		c-1.4,0.1-1.6,1.1-1.6,1.6c0,1.1,0.9,1.6,1.7,1.6h1.5c0.9,0,1.4-0.6,1.4-1.4v-2C61,7.5,60.3,6.8,59.2,6.8"/>
</g>
</svg>
