<?xml version="1.0" encoding="utf-8"?>
<!-- Generator: Adobe Illustrator 18.0.0, SVG Export Plug-In . SVG Version: 6.00 Build 0)  -->
<!DOCTYPE svg PUBLIC "-//W3C//DTD SVG 1.1//EN" "http://www.w3.org/Graphics/SVG/1.1/DTD/svg11.dtd">
<svg version="1.1" id="RSI" xmlns="http://www.w3.org/2000/svg" xmlns:xlink="http://www.w3.org/1999/xlink" x="0px" y="0px"
	 viewBox="0 0 561.1 422.1" enable-background="new 0 0 561.1 422.1" xml:space="preserve">
<path fill="#010202" d="M0,0v422.1h561.1V0H0z M229.6,311.1h-33.9c-7.5,0-10-2.2-13.1-7.5l-37-66.6c-2.2-3.7-3.1-6.2-3.1-9.3
	c0-1.2,0.3-3.1,1.2-6.8l3.1-13.1c2.8-11.8,5.9-7.8,14.9-11.5c7.2-3.1,14.3-8.1,14.3-23.9c0-17.4-9-24.3-27.7-24.3h-29.6v154.6
	c0,6.2-1.9,8.4-8.1,8.4H82.1c-6.2,0-8.1-2.2-8.1-8.4V119.5c0-6.2,1.9-8.4,8.1-8.4h69.4c47.9,0,69.7,21.8,69.7,60.7
	c0,30.2-17.1,43.9-32.3,53.5l45.4,75.3C239.2,308.3,233.9,311.1,229.6,311.1z M321,312.9c-22.1,0-44.8-1.5-53.8-2.8
	c-4.1-0.6-6.2-2.5-5.6-7.2l3.7-24c1.2-6.9,3.4-7.8,11.5-7.2c7.8,0.6,30.5,2.5,43.5,2.5c28.6,0,40.4-3.1,40.4-20.5
	c0-11.8-8.1-17.4-27.1-22.4l-23-5.9c-30.2-7.8-47.6-26.7-47.6-58.8c0-35.5,24.9-57.8,76.2-57.8c25.2,0,45.1,1.5,54.1,2.8
	c4,0.6,6.2,2.5,5.6,7.1l-3.7,23.3c-1.2,6.9-3.4,7.8-11.5,7.2c-7.8-0.6-27.4-2.2-46.7-2.2c-14.3,0-29.2,3.1-29.2,19.3
	c0,11.5,7.1,16.5,22.7,20.5l23,5.9c41.1,10.6,52.9,30.8,52.9,57.9C406.5,296.7,370.4,312.9,321,312.9z M487.1,302.7
	c0,6.2-1.9,8.4-8.1,8.4h-28.6c-6.2,0-8.1-2.2-8.1-8.4V119.5c0-6.2,1.9-8.4,8.1-8.4H479c6.2,0,8.1,2.2,8.1,8.4V302.7z"/>
</svg>
