<?xml version="1.0" encoding="utf-8"?>
<!-- Generator: Adobe Illustrator 18.0.0, SVG Export Plug-In . SVG Version: 6.00 Build 0)  -->
<!DOCTYPE svg PUBLIC "-//W3C//DTD SVG 1.1//EN" "http://www.w3.org/Graphics/SVG/1.1/DTD/svg11.dtd">
<svg version="1.1" id="SRG_SSR" xmlns="http://www.w3.org/2000/svg" xmlns:xlink="http://www.w3.org/1999/xlink" x="0px" y="0px"
	 viewBox="0 0 1224.6 422.1" enable-background="new 0 0 1224.6 422.1" xml:space="preserve">
<path fill="#010202" d="M0,0v422.1h1224.6V0H0z M133.5,312.9c-22.1,0-44.8-1.6-53.8-2.8c-4-0.6-6.2-2.5-5.6-7.2l3.7-24
	c1.2-6.8,3.4-7.8,11.5-7.2c7.8,0.6,30.5,2.5,43.5,2.5c28.6,0,40.4-3.1,40.4-20.5c0-11.8-8.1-17.4-27.1-22.4l-23-5.9
	c-30.2-7.8-47.6-26.7-47.6-58.8c0-35.5,24.9-57.8,76.2-57.8c25.2,0,45.1,1.6,54.1,2.8c4,0.6,6.2,2.5,5.6,7.2l-3.7,23.3
	c-1.2,6.8-3.4,7.8-11.5,7.2c-7.8-0.6-27.4-2.2-46.6-2.2c-14.3,0-29.2,3.1-29.2,19.3c0,11.5,7.2,16.5,22.7,20.5l23,5.9
	c41.1,10.6,52.9,30.8,52.9,57.8C219.1,296.7,183,312.9,133.5,312.9z M401.3,311.1h-33.9c-7.5,0-10-2.2-13.1-7.5l-37-66.6
	c-2.2-3.7-3.1-6.2-3.1-9.3c0-1.2,0.3-3.1,1.2-6.8l3.1-13.1c2.8-11.8,5.9-7.8,14.9-11.5c7.2-3.1,14.3-8.1,14.3-24
	c0-17.4-9-24.3-27.7-24.3h-29.6v154.6c0,6.2-1.9,8.4-8.1,8.4h-28.6c-6.2,0-8.1-2.2-8.1-8.4V119.4c0-6.2,1.9-8.4,8.1-8.4h69.4
	c47.9,0,69.7,21.8,69.7,60.7c0,30.2-17.1,43.9-32.4,53.5l45.4,75.3C411,308.3,405.7,311.1,401.3,311.1z M581.7,299.2
	c0,6.8-1.9,9.3-8.4,10.9c-6.5,1.6-19.3,3.1-53.2,3.1c-75.6,0-99.8-43.5-99.8-104.8c0-61.9,29.5-99.5,102.6-99.5
	c32,0,46,1.9,48.2,2.2c6.5,0.6,7.8,3.4,6.8,9.6l-3.7,22.4c-1.3,6.8-3.4,7.8-11.5,7.2c-9-0.6-24.9-1.6-36.7-1.6
	c-39.2,0-57.2,12.1-57.2,59.7c0,37.6,10.9,65,53.2,65c7.2,0,13.4-0.3,15.2-0.6v-43.5h-14.6c-6.2,0-8.1-2.2-8.1-8.4v-21.5
	c0-6.2,1.9-8.4,8.1-8.4h51c6.2,0,8.1,2.2,8.1,8.4V299.2z M715.3,312.9c-22.1,0-44.8-1.6-53.8-2.8c-4-0.6-6.2-2.5-5.6-7.2l3.7-24
	c1.2-6.8,3.4-7.8,11.5-7.2c7.8,0.6,30.5,2.5,43.5,2.5c28.6,0,40.4-3.1,40.4-20.5c0-11.8-8.1-17.4-27.1-22.4l-23-5.9
	c-30.2-7.8-47.6-26.7-47.6-58.8c0-35.5,24.9-57.8,76.2-57.8c25.2,0,45.1,1.6,54.1,2.8c4,0.6,6.2,2.5,5.6,7.2l-3.7,23.3
	c-1.2,6.8-3.4,7.8-11.5,7.2c-7.8-0.6-27.4-2.2-46.6-2.2c-14.3,0-29.2,3.1-29.2,19.3c0,11.5,7.2,16.5,22.7,20.5l23,5.9
	c41.1,10.6,52.9,30.8,52.9,57.8C800.8,296.7,764.7,312.9,715.3,312.9z M876.1,312.9c-22.1,0-44.8-1.6-53.8-2.8
	c-4-0.6-6.2-2.5-5.6-7.2l3.7-24c1.2-6.8,3.4-7.8,11.5-7.2c7.8,0.6,30.5,2.5,43.5,2.5c28.6,0,40.4-3.1,40.4-20.5
	c0-11.8-8.1-17.4-27.1-22.4l-23-5.9c-30.2-7.8-47.6-26.7-47.6-58.8c0-35.5,24.9-57.8,76.2-57.8c25.2,0,45.1,1.6,54.1,2.8
	c4,0.6,6.2,2.5,5.6,7.2l-3.7,23.3c-1.2,6.8-3.4,7.8-11.5,7.2c-7.8-0.6-27.4-2.2-46.7-2.2c-14.3,0-29.2,3.1-29.2,19.3
	c0,11.5,7.2,16.5,22.7,20.5l23,5.9c41.1,10.6,52.9,30.8,52.9,57.8C961.6,296.7,925.5,312.9,876.1,312.9z M1143.9,311.1H1110
	c-7.5,0-10-2.2-13.1-7.5l-37-66.6c-2.2-3.7-3.1-6.2-3.1-9.3c0-1.2,0.3-3.1,1.2-6.8l3.1-13.1c2.8-11.8,5.9-7.8,14.9-11.5
	c7.2-3.1,14.3-8.1,14.3-24c0-17.4-9-24.3-27.7-24.3h-29.5v154.6c0,6.2-1.9,8.4-8.1,8.4h-28.6c-6.2,0-8.1-2.2-8.1-8.4V119.4
	c0-6.2,1.9-8.4,8.1-8.4h69.4c47.9,0,69.7,21.8,69.7,60.7c0,30.2-17.1,43.9-32.3,53.5l45.4,75.3
	C1153.5,308.3,1148.2,311.1,1143.9,311.1z"/>
</svg>
